<svg xmlns="http://www.w3.org/2000/svg" xmlns:xlink="http://www.w3.org/1999/xlink" width="183.145" height="44.239" viewBox="0 0 183.145 44.239"><defs><clipPath id="a"><rect width="183.144" height="44.239" fill="#0f0f0f"/></clipPath></defs><g clip-path="url(#a)"><path d="M44.053,1.7c-.027,1.84.233,1.262-1.053,2.553Q34.4,12.882,25.779,21.5c-.73.73-.674.655.022,1.352q8.78,8.791,17.572,17.572a1.956,1.956,0,0,1,.693,1.677,14.326,14.326,0,0,0-.011,1.6c.007.371-.16.531-.528.527q-1.039-.012-2.077,0a1.021,1.021,0,0,1-.778-.336Q37.605,40.8,34.53,37.713c-.432-.433-.878-.852-1.309-1.287q-2.838-2.866-5.671-5.736-2.42-2.437-4.856-4.859c-.056-.056-.112-.115-.171-.168-.434-.391-.494-.4-.918.017-1.362,1.35-2.713,2.711-4.069,4.067q-6.889,6.9-13.767,13.805a1.976,1.976,0,0,1-1.685.679c-.529-.044-1.065-.016-1.6-.012-.334,0-.479-.145-.474-.484.011-.719.014-1.439,0-2.157a1,1,0,0,1,.381-.754q.966-.955,1.923-1.919c1.647-1.666,3.281-3.345,4.938-5,1.882-1.883,3.792-3.738,5.673-5.622,1.9-1.9,3.783-3.824,5.669-5.742.4-.4.391-.416-.134-.943q-4.8-4.807-9.6-9.612Q4.711,7.83.552,3.684A1.6,1.6,0,0,1,0,2.353C.043,1.743.023,1.128.011.516,0,.193.1.014.46.019c.746.01,1.492.017,2.237,0a1.056,1.056,0,0,1,.8.453C4.9,1.89,6.3,3.319,7.706,4.733q6.8,6.816,13.609,13.625c.837.839.725.737,1.468-.006Q31.653,9.481,40.51.6A1.628,1.628,0,0,1,41.9.008a15.421,15.421,0,0,0,1.677.01c.343-.007.481.15.474.481-.008.4,0,.8,0,1.2" transform="translate(0 -0.001)" fill="#0f0f0f"/><path d="M475.261,91.01c-.639,0-1.279,0-1.918,0-.746-.006-.753-.008-.9-.7-.292-1.326-.569-2.656-.866-3.981q-1.064-4.752-2.145-9.5a3.139,3.139,0,0,0-.239-.549,2.63,2.63,0,0,0-.282.508q-1.976,6.661-3.936,13.326c-.045.153-.1.3-.137.459a.512.512,0,0,1-.574.435c-1.492,0-2.983-.01-4.475.006-.416,0-.555-.224-.638-.566q-.31-1.28-.634-2.558-1.374-5.46-2.755-10.918a4.74,4.74,0,0,0-.3-.7,3.985,3.985,0,0,0-.339.662q-1.963,6.581-3.908,13.168a2.545,2.545,0,0,0-.112.383c-.051.393-.27.539-.656.529-.612-.015-1.225,0-1.838,0-.746,0-1.492.007-2.237,0-.687-.009-.695-.025-.523-.67q1.162-4.36,2.327-8.72,1.874-6.98,3.76-13.956c.258-.952.077-.9,1.155-.9q2.038-.006,4.076,0c.767,0,.774.007.98.74q1.96,6.956,3.92,13.912a3.081,3.081,0,0,0,.266.53,2.927,2.927,0,0,0,.274-.535q1.863-6.693,3.714-13.389c.416-1.495.2-1.239,1.627-1.256,1.278-.015,2.557-.006,3.836,0,.813,0,.817.005.992.8.642,2.911,1.275,5.825,1.922,8.734.769,3.454,1.552,6.906,2.323,10.36q.426,1.91.822,3.826c.1.459.052.515-.419.525-.719.017-1.438,0-2.158,0Z" transform="translate(-374.415 -56.072)" fill="#0f0f0f"/><path d="M1004.319,79.741q0-5.752,0-11.5c0-.544,0-.557.578-.559q4.034-.008,8.068,0c1.145,0,2.292-.026,3.434.035a11.237,11.237,0,0,1,4.677,1.2c3.994,2.083,4.338,7.083,2.382,9.936a8.178,8.178,0,0,1-3.584,2.955c-.1.042-.2.081-.3.118-.294.111-.354.292-.174.553.362.527.708,1.065,1.084,1.581a24.248,24.248,0,0,0,5.848,5.84c.594.408.453.4-.014.744-1.031.755-2.078,1.488-3.1,2.249a.623.623,0,0,1-.856.029c-.736-.568-1.521-1.081-2.208-1.7a37.162,37.162,0,0,1-5.9-7.215c-.132-.2-.275-.394-.392-.6a.8.8,0,0,0-.777-.448c-.958.013-1.917-.007-2.876.008-.573.009-.628.063-.632.665-.011,1.757,0,3.515-.005,5.272,0,.772.009,1.544-.005,2.316-.01.539-.056.591-.607.6-1.385.013-2.769,0-4.154.007-.4,0-.5-.048-.5-.578.023-3.834.012-7.669.012-11.5m8.812-1.641v0c.932,0,1.863.012,2.795,0a3.5,3.5,0,0,0,2.568-1.106,2.536,2.536,0,0,0-.747-4.138,4.168,4.168,0,0,0-1.61-.4c-1.969-.049-3.939-.031-5.909-.021-.583,0-.645.069-.65.651q-.018,2.156,0,4.312c0,.65.063.7.759.708.931.011,1.863,0,2.8,0" transform="translate(-843.585 -56.843)" fill="#0f0f0f"/><path d="M884.643,91.013c-.772,0-1.545-.012-2.317.005a1.014,1.014,0,0,1-.953-.454,9.387,9.387,0,0,0-.7-.87c-.323-.37-.382-.386-.791-.082a9.072,9.072,0,0,1-4.081,1.727,9.925,9.925,0,0,1-6.73-1.026,6,6,0,0,1-2.936-4.267,6.986,6.986,0,0,1,2.827-7.163c.415-.332.87-.614,1.3-.932.371-.277.384-.335.1-.7a8.058,8.058,0,0,1-1.524-2.6,5.826,5.826,0,0,1,.611-5.344,5.747,5.747,0,0,1,3.225-2.224,10.313,10.313,0,0,1,6.506.358,12.244,12.244,0,0,1,2.812,1.5c.281.2.308.354.129.645-.626,1.021-1.219,2.063-1.835,3.09-.227.379-.26.392-.6.106A8.394,8.394,0,0,0,876.412,71a5.291,5.291,0,0,0-1.571-.2c-1.544.066-2.153,1.256-1.55,2.738a4.877,4.877,0,0,0,.785,1.2q2.913,3.55,5.852,7.078c.381.46.5.455.743-.126.294-.712.531-1.448.773-2.18.186-.563.176-.579.695-.439,1.028.277,2.054.558,3.077.855.547.159.6.246.441.8a19.556,19.556,0,0,1-1.835,4.412c-.521.9-.576.658.107,1.49q1.671,2.038,3.344,4.074a1.465,1.465,0,0,1,.141.27,1.686,1.686,0,0,1-.293.053c-.826,0-1.651,0-2.477,0v-.014M874,87.186a6.3,6.3,0,0,0,3.081-.888c.424-.249.443-.367.151-.744-.341-.441-.706-.864-1.06-1.3-.777-.944-1.549-1.891-2.332-2.831-.334-.4-.444-.441-.8-.219a4.7,4.7,0,0,0-1.841,1.836,2.671,2.671,0,0,0,.2,3.071A3.263,3.263,0,0,0,874,87.186" transform="translate(-727.4 -56.036)" fill="#0f0f0f"/><path d="M332.758,91.712c-.879,0-1.757.006-2.636,0-.727-.007-.751-.02-.967-.691q-1.6-4.977-3.194-9.957-1.339-4.181-2.674-8.364-.7-2.206-1.384-4.419c-.2-.641-.155-.72.478-.726,1.464-.013,2.929-.011,4.393,0,.639,0,.686.034.891.685.63,2.005,1.234,4.019,1.866,6.024q1.367,4.339,2.77,8.666c.081.249.06.673.428.66.132,0,.29-.4.366-.639q1.853-5.86,3.686-11.726c.318-1.015.624-2.035.955-3.046.2-.6.227-.62.848-.624q2.237-.014,4.473,0c.668,0,.678.025.466.69q-1.8,5.627-3.6,11.253t-3.584,11.257c-.065.2-.15.4-.2.605-.081.317-.267.389-.585.38-.931-.027-1.863-.009-2.795-.009v-.016" transform="translate(-270.3 -56.735)" fill="#0f0f0f"/><path d="M742.726,86.781c0-1.3-.021-2.61.01-3.914a2.485,2.485,0,0,0-.448-1.488q-3.55-5.408-7.071-10.834c-.538-.825-1.075-1.651-1.6-2.484-.2-.322-.152-.432.221-.439,1.011-.018,2.023-.01,3.035-.012.745,0,1.492.02,2.236-.007a1.039,1.039,0,0,1,1.032.577c1.343,2.236,2.711,4.457,4.072,6.683.319.522.631,1.05.971,1.559.247.37.379.36.644-.018.153-.217.278-.454.418-.68,1.52-2.44,3.055-4.871,4.55-7.326a1.413,1.413,0,0,1,1.4-.8c1.543.048,3.088.011,4.632.02a5.063,5.063,0,0,1,.682.094c-.1.185-.182.379-.3.553-2.637,4-5.236,8.027-7.941,11.982a6.271,6.271,0,0,0-1.228,4.063c.109,2.124.027,4.259.027,6.389,0,.186-.009.373,0,.559.009.33-.142.5-.475.494-.266,0-.532.006-.8.006-1.118,0-2.237.007-3.355,0-.69-.006-.705-.024-.709-.736-.007-1.411,0-2.822,0-4.234" transform="translate(-616.116 -56.776)" fill="#0f0f0f"/><path d="M662.981,78.839q0-5.434,0-10.867c0-.213.009-.426,0-.639-.013-.359.13-.542.511-.54q2.118.011,4.235,0c.392,0,.513.2.5.548-.007.213,0,.426,0,.639q0,8.47,0,16.94c0,.107,0,.213,0,.32,0,1.07,0,1.073,1.043,1.073H679.1c.96,0,.935-.065.935.9,0,1.092.008,2.184-.005,3.276-.006.512-.039.527-.556.555-.133.007-.266,0-.4,0h-15.1c-1.03,0-.995.045-.995-1.015q0-5.593,0-11.187" transform="translate(-556.882 -56.103)" fill="#0f0f0f"/><path d="M63.772.064c.825,0,1.651.013,2.476-.006a1.153,1.153,0,0,1,.915.376c1.814,1.837,3.643,3.662,5.465,5.491.094.094.176.2.272.292a.319.319,0,0,0,.492,0c.135-.128.267-.26.4-.391C75.542,4.079,77.3,2.338,79.034.568A1.579,1.579,0,0,1,80.3.054c1.6.025,3.195.008,4.792.015a1.429,1.429,0,0,1,.36.1,1.519,1.519,0,0,1-.19.321q-3.268,3.283-6.545,6.558-2.54,2.543-5.083,5.082c-.463.462-.475.464-.929.01Q66.913,6.35,61.132.553a2.945,2.945,0,0,1-.3-.434c.182-.019.364-.052.546-.053.8-.006,1.6,0,2.4,0" transform="translate(-51.095 -0.045)" fill="#0f0f0f"/><path d="M.02,83.38c0-.772.026-1.546-.009-2.316A1.453,1.453,0,0,1,.5,79.87c1.671-1.643,3.318-3.309,4.974-4.967.094-.094.189-.187.282-.282.572-.582.576-.586-.018-1.186Q3.042,70.711.336,68a.909.909,0,0,1-.319-.691c.008-1.757,0-3.515.008-5.272A1.111,1.111,0,0,1,.1,61.751a2.013,2.013,0,0,1,.259.158c.1.084.191.185.285.28l11.18,11.188c.705.706.691.614.02,1.285L.613,85.91a2.255,2.255,0,0,1-.227.224,3.488,3.488,0,0,1-.322.194,2.366,2.366,0,0,1-.041-.312c0-.879,0-1.757,0-2.636" transform="translate(-0.007 -51.869)" fill="#0f0f0f"/><path d="M63.907,211.572c-.852,0-1.7,0-2.556,0a2.04,2.04,0,0,1-.309-.048,1.521,1.521,0,0,1,.16-.246c.221-.231.452-.452.678-.678q5.42-5.424,10.84-10.848c.7-.7.576-.676,1.274.022q5.564,5.563,11.123,11.13c.132.132.267.261.39.4s.114.24-.092.257c-.159.013-.319.012-.479.012-1.518,0-3.035-.016-4.553.009a1.6,1.6,0,0,1-1.266-.521c-1.659-1.692-3.343-3.359-5.018-5.035-.113-.113-.223-.229-.339-.339-.43-.4-.472-.414-.9.015-1.6,1.6-3.192,3.21-4.8,4.8-1.3,1.278-.746,1.046-2.549,1.07-.532.007-1.065,0-1.6,0" transform="translate(-51.273 -167.351)" fill="#0f0f0f"/><path d="M210.771,64.764c0,.8-.019,1.6.007,2.4a1.413,1.413,0,0,1-.466,1.128c-1.742,1.722-3.466,3.461-5.2,5.193-.679.679-.67.621,0,1.294,1.712,1.714,3.414,3.438,5.141,5.137a1.6,1.6,0,0,1,.523,1.266c-.026,1.6-.009,3.195-.014,4.792a1.534,1.534,0,0,1-.064.306,1.373,1.373,0,0,1-.329-.158c-.2-.173-.383-.369-.571-.557q-5.476-5.48-10.951-10.961c-.5-.5-.493-.5-.014-.98q5.645-5.646,11.291-11.291c.166-.166.355-.309.534-.463a6.018,6.018,0,0,1,.1.742c.014.719,0,1.437,0,2.156" transform="translate(-166.715 -51.965)" fill="#0f0f0f"/></g></svg>