<?xml version="1.0" encoding="UTF-8"?>
<svg id="Camada_2" data-name="Camada 2" xmlns="http://www.w3.org/2000/svg" viewBox="0 0 72.09 24.26">
  <defs>
    <style>
      .cls-1 {
        fill: #0cdf82;
      }

      .cls-2 {
        fill: #fafafa;
      }
    </style>
  </defs>
  <g id="Camada_1-2" data-name="Camada 1">
    <g>
      <path class="cls-1" d="M0,14.77c0-1.88,1.31-3.49,4.85-3.49h5.39v-.96c0-2.28-1.34-3.38-4.05-3.38-2.44,0-3.78.91-3.78,2.71,0,.08,0,.27.03.48H.46c-.03-.19-.05-.56-.05-.8,0-2.63,2.25-4.21,5.84-4.21,3.89,0,6.14,1.93,6.14,5.39v8.07h-2.14c.03-.62.08-1.85.11-3.14h-.03c-.46,2.04-2.12,3.35-5.42,3.35-3,0-4.91-1.53-4.91-4.02ZM10.24,13.03v-.19h-5.2c-2.17,0-3.03.64-3.03,1.93s1.23,2.2,3.32,2.2c3,0,4.91-1.53,4.91-3.94Z"/>
      <path class="cls-1" d="M15.4,11.88c0-3.94,2.47-6.76,6.49-6.76,2.76,0,4.45,1.13,4.93,2.87h.03V0h2.15v18.58h-2.15c.08-1.18.11-2.36.13-3.54h-.05c-.51,2.28-2.28,3.75-5.23,3.75-3.83,0-6.3-2.79-6.3-6.92ZM26.85,12.12v-.67c0-2.68-1.85-4.4-4.77-4.4-2.76,0-4.53,2.06-4.53,4.83,0,2.95,1.77,4.99,4.5,4.99,2.92,0,4.8-1.85,4.8-4.75Z"/>
      <path class="cls-2" d="M45.51,19.95c0,2.63-2.49,4.32-6.68,4.32s-6.97-1.42-6.97-3.94c0-1.31,1.05-2.41,2.71-2.41v-.03c-.67-.51-1.07-1.29-1.07-2.2,0-.99.43-1.77.94-2.06v-.05c-1.23-.8-1.93-2.12-1.93-3.73,0-2.87,2.2-4.72,5.63-4.72,1.45,0,2.68.32,3.62.91v-.03c-.29-.38-.51-.88-.51-1.47,0-1.07.94-1.77,2.44-1.77.56,0,.97.08,1.21.16v1.72c-.19-.08-.51-.16-.94-.16-.88,0-1.37.4-1.37,1.18,0,.4.13.91.35,1.45.56.75.86,1.66.86,2.73,0,2.87-2.2,4.72-5.66,4.72-.91,0-1.72-.13-2.44-.38-.21.21-.38.62-.38,1.13,0,.88.56,1.45,1.69,1.45h4.29c2.68,0,4.21,1.18,4.21,3.19ZM43.37,20.16c0-1.05-.78-1.58-2.39-1.58h-3.94c-1.85,0-3.03.48-3.03,1.69,0,1.47,1.88,2.17,4.8,2.17,3.4,0,4.56-1.02,4.56-2.28ZM34.6,9.84c0,1.77,1.37,2.9,3.54,2.9s3.57-1.13,3.57-2.9-1.39-2.9-3.57-2.9-3.54,1.13-3.54,2.9Z"/>
      <path class="cls-2" d="M48.16.94h2.31v2.71h-2.31V.94ZM48.24,5.33h2.14v13.24h-2.14V5.33Z"/>
      <path class="cls-2" d="M54.23,0h2.14v18.58h-2.14V0Z"/>
      <path class="cls-2" d="M72.09,12.39h-10.38c.13,2.81,1.85,4.58,4.45,4.58,2.23,0,3.75-1.13,3.94-2.87h1.98c-.13,2.87-2.47,4.69-5.95,4.69-3.99,0-6.57-2.63-6.57-6.73s2.55-6.94,6.52-6.94,6.01,2.33,6.01,6.27v.99ZM70.1,10.67c0-2.33-1.45-3.73-3.97-3.73-2.36,0-3.94,1.37-4.34,3.89h8.31v-.16Z"/>
    </g>
  </g>
</svg>