<svg xmlns="http://www.w3.org/2000/svg" width="32.807" height="20.386" viewBox="0 0 32.807 20.386"><g transform="translate(0 0)"><g transform="translate(0 0)"><path d="M13.5,105.192a4.919,4.919,0,0,0,1.548-1.129,4.37,4.37,0,0,0,.937-2.929,4.991,4.991,0,0,0-.929-3.035Q13.5,96.032,9.8,95.979H0v19.88H9.135A14.368,14.368,0,0,0,12,115.592a5.651,5.651,0,0,0,2.29-1,5.525,5.525,0,0,0,1.435-1.563,5.718,5.718,0,0,0,.9-3.17,5.192,5.192,0,0,0-.789-2.913A4.554,4.554,0,0,0,13.5,105.192Zm-9.455-5.76H8.455a7.823,7.823,0,0,1,2.4.31,1.782,1.782,0,0,1,1.089,1.839,1.868,1.868,0,0,1-.824,1.745,4.156,4.156,0,0,1-2.145.493H4.042Zm6.978,12.627a4.859,4.859,0,0,1-2.055.351H4.042v-5.3H9.033a5.237,5.237,0,0,1,2.03.334,2.13,2.13,0,0,1,1.29,2.134A2.5,2.5,0,0,1,11.02,112.059Z" transform="translate(0 -95.979)"/><rect width="8.688" height="2.489" transform="translate(20.965 0.933)"/><path d="M294.609,177.117a7.135,7.135,0,0,0-1.2-3.057,6.036,6.036,0,0,0-2.588-2.188,8.566,8.566,0,0,0-3.527-.693,7.3,7.3,0,0,0-5.36,2.051,7.955,7.955,0,0,0-2.065,5.9q0,4.1,2.29,5.92a8.229,8.229,0,0,0,5.28,1.819,7.349,7.349,0,0,0,5.641-2.155,4.852,4.852,0,0,0,1.452-2.674h-4a3.228,3.228,0,0,1-.808,1.017,3.351,3.351,0,0,1-2.174.677,4.018,4.018,0,0,1-2.163-.558,3.533,3.533,0,0,1-1.571-3.119h10.923A18.817,18.817,0,0,0,294.609,177.117Zm-10.694.383a4.009,4.009,0,0,1,1.046-2.288,3.152,3.152,0,0,1,2.34-.847,3.481,3.481,0,0,1,2.327.8,3.234,3.234,0,0,1,1.044,2.34Z" transform="translate(-261.938 -166.48)"/></g></g></svg>