<svg xmlns="http://www.w3.org/2000/svg" width="24.829" height="24.312" viewBox="0 0 24.829 24.312"><g transform="translate(0 0)"><path d="M12.413,5.329a12.471,12.471,0,0,0-3.921,24.29c.621.115.847-.27.847-.6,0-.3-.011-1.08-.017-2.12-3.453.753-4.182-1.671-4.182-1.671A3.291,3.291,0,0,0,3.762,23.4c-1.128-.773.084-.757.084-.757a2.607,2.607,0,0,1,1.9,1.285A2.638,2.638,0,0,0,9.36,24.967a2.661,2.661,0,0,1,.788-1.667c-2.756-.315-5.655-1.384-5.655-6.159A4.831,4.831,0,0,1,5.773,13.8a4.491,4.491,0,0,1,.121-3.3s1.043-.335,3.414,1.277a11.718,11.718,0,0,1,6.216,0c2.37-1.612,3.411-1.277,3.411-1.277a4.5,4.5,0,0,1,.124,3.3,4.822,4.822,0,0,1,1.276,3.346c0,4.787-2.9,5.841-5.667,6.15A2.982,2.982,0,0,1,15.51,25.6c0,1.667-.016,3.01-.016,3.419,0,.334.223.722.853.6A12.472,12.472,0,0,0,12.413,5.329Z" transform="translate(0 -5.329)"/></g></svg>