<svg xmlns="http://www.w3.org/2000/svg" width="23.883" height="24.08" viewBox="0 0 23.883 24.08"><g transform="translate(0 7.66)"><rect width="5.341" height="16.42"/></g><g transform="translate(7.464 7.66)"><path d="M172.425,160.193c-.057-.018-.11-.037-.17-.054s-.143-.03-.216-.042a4.787,4.787,0,0,0-.958-.1,7.421,7.421,0,0,0-5.739,3.139V160H160v16.42h5.341v-8.956s4.036-5.622,5.739-1.493V176.42h5.339v-11.08A5.325,5.325,0,0,0,172.425,160.193Z" transform="translate(-160 -160)"/></g><g transform="translate(0 0)"><ellipse cx="2.78" cy="2.78" rx="2.78" ry="2.78"/></g></svg>