<?xml version="1.0" encoding="UTF-8"?>
<svg id="Layer_2" data-name="Layer 2" xmlns="http://www.w3.org/2000/svg" viewBox="0 0 612.55 87.84">
  <defs>
    <style>
      .cls-1 {
        fill: #ffd635;
      }

      .cls-2 {
        fill: #f7f7f4;
      }
    </style>
  </defs>
  <g id="Layer_1-2" data-name="Layer 1">
    <circle class="cls-1" cx="349.73" cy="36.72" r="8.11"/>
    <path class="cls-2" d="m63.25,58.46c-3.06-1.56-5.38-3.94-6.97-7.15-1.59-3.21-2.38-7.23-2.38-12.06V13.66h10.64v25.68c0,3.12.43,5.58,1.28,7.38.86,1.8,2.02,3.07,3.48,3.81s3.24,1.1,5.32,1.1c3.18,0,5.64-.9,7.38-2.71,1.74-1.8,2.61-5,2.61-9.58V13.66h10.73v25.59c0,7.21-1.76,12.61-5.27,16.19-3.52,3.58-8.67,5.37-15.45,5.37-4.52,0-8.31-.78-11.37-2.34Z"/>
    <path class="cls-2" d="m106.38,56.76c-3.36-2.69-5.11-6.43-5.23-11.5h10.36c.18,2.81,1.16,4.68,2.93,5.91,1.77,1.22,4.28,1.83,7.52,1.83,2.81,0,4.95-.46,6.42-1.38s2.2-2.35,2.2-4.31c0-1.34-.35-2.44-1.05-3.3-.7-.86-1.67-1.53-2.89-2.02-1.22-.49-2.97-1.01-5.23-1.56l-1.56-.37c-3.91-.98-7.03-2-9.35-3.07-2.32-1.07-4.13-2.48-5.41-4.22-1.28-1.74-1.93-4.05-1.93-6.92,0-4.28,1.57-7.5,4.72-9.67,3.15-2.17,7.5-3.26,13.07-3.26,6.24,0,10.84,1.21,13.8,3.62,2.96,2.42,4.48,5.79,4.54,10.13h-10c0-2.08-.7-3.62-2.11-4.63-1.41-1.01-3.55-1.51-6.42-1.51-2.26,0-4.04.35-5.32,1.05-1.28.7-1.93,1.91-1.93,3.62,0,1.1.31,2.02.92,2.75.61.73,1.48,1.33,2.61,1.79,1.13.46,2.83.96,5.09,1.51l.37.09c.31.06.58.12.83.18,3.85.92,7,1.88,9.45,2.89,2.44,1.01,4.45,2.48,6.01,4.4,1.56,1.93,2.34,4.45,2.34,7.57,0,2.93-.73,5.47-2.2,7.61-1.47,2.14-3.65,3.81-6.56,5-2.9,1.19-6.56,1.79-10.96,1.79-6.66,0-11.68-1.34-15.04-4.04Z"/>
    <path class="cls-2" d="m180.76,51.44v9.35h-8.8c-4.1,0-7.48-.64-10.14-1.92-2.65-1.29-4.63-3.37-5.91-6.24-1.28-2.87-1.93-6.72-1.93-11.56v-17.69h-11v-8.99h11.42L156.92.08h7.7v14.31h14.68v8.99h-14.68v18.15c0,2.39.23,4.28.69,5.69.46,1.41,1.31,2.46,2.57,3.16,1.25.71,3.01,1.06,5.27,1.06h7.61Z"/>
    <path class="cls-2" d="m249.81,60.01c-.98-.52-1.79-1.27-2.43-2.25-.64-.98-1.27-2.29-1.88-3.94l-16.14-40.35h11.1l13.21,35.4,13.21-35.4h11.19l-16.14,40.35c-.67,1.65-1.32,2.95-1.93,3.9-.61.95-1.42,1.7-2.43,2.25s-2.31.83-3.9.83-2.87-.26-3.85-.78Z"/>
    <path class="cls-2" d="m482.76,57.39c-3.36-2.69-5.11-6.03-5.23-11.11h10.36c.18,2.81,1.16,4.29,2.93,5.51,1.77,1.22,4.28,1.83,7.52,1.83,2.81,0,4.95-.46,6.42-1.38s2.2-2.35,2.2-4.31c0-1.34-.35-2.44-1.05-3.3-.7-.86-1.67-1.53-2.89-2.02-1.22-.49-2.97-1.01-5.23-1.56l-1.56-.37c-3.91-.98-7.03-2-9.35-3.07-2.32-1.07-4.13-2.48-5.41-4.22-1.28-1.74-1.93-4.05-1.93-6.92,0-4.28,1.57-7.5,4.72-9.67,3.15-2.17,7.5-3.26,13.07-3.26,6.24,0,10.84,1.21,13.8,3.62,2.96,2.42,4.48,5.79,4.54,10.13h-10c0-2.08-.7-3.62-2.11-4.63-1.41-1.01-3.55-1.51-6.42-1.51-2.26,0-4.04.35-5.32,1.05-1.28.7-1.93,1.91-1.93,3.62,0,1.1.31,2.02.92,2.75.61.73,1.48,1.33,2.61,1.79,1.13.46,2.83.96,5.09,1.51l.37.09c.31.06.58.12.83.18,3.85.92,7,1.88,9.45,2.89,2.44,1.01,4.45,2.48,6.01,4.4,1.56,1.93,2.34,4.45,2.34,7.57,0,2.93-.73,5.47-2.2,7.61-1.47,2.14-3.65,3.81-6.56,5-2.9,1.19-6.56,1.79-10.96,1.79-6.66,0-11.68-1.34-15.04-4.04Z"/>
    <path class="cls-2" d="m526.59,57.39c-3.36-2.69-5.09-6.03-5.22-11.11h10.36c.18,2.81,1.15,4.29,2.92,5.51,1.77,1.22,4.28,1.83,7.52,1.83,2.81,0,4.95-.46,6.42-1.38s2.2-2.35,2.2-4.31c0-1.34-.35-2.44-1.05-3.3-.7-.86-1.67-1.53-2.89-2.02-1.22-.49-2.97-1.01-5.23-1.56l-1.56-.37c-3.91-.98-7.03-2-9.35-3.07-2.32-1.07-4.13-2.48-5.41-4.22-1.28-1.74-1.93-4.05-1.93-6.92,0-4.28,1.57-7.5,4.72-9.67,3.15-2.17,7.5-3.26,13.07-3.26,6.24,0,10.84,1.21,13.8,3.62,2.96,2.42,4.48,5.79,4.54,10.13h-10c0-2.08-.7-3.62-2.11-4.63-1.41-1.01-3.55-1.51-6.42-1.51-2.26,0-4.04.35-5.32,1.05-1.28.7-1.93,1.91-1.93,3.62,0,1.1.31,2.02.92,2.75.61.73,1.48,1.33,2.61,1.79,1.13.46,2.83.96,5.09,1.51l.37.09c.31.06.58.12.83.18,3.85.92,7,1.88,9.45,2.89,2.44,1.01,4.45,2.48,6.01,4.4,1.56,1.93,2.34,4.45,2.34,7.57,0,2.93-.73,5.47-2.2,7.61-1.47,2.14-3.65,3.81-6.56,5-2.9,1.19-6.56,1.79-10.96,1.79-6.66,0-11.68-1.34-15.04-4.04Z"/>
    <path class="cls-2" d="m206.3,12.97c-13.2,0-23.93,10.73-23.93,23.93s10.73,23.93,23.93,23.93c5.34,0,9.22-.6,14.26-3.04v3.04s9.64,0,9.64,0l.03-23.51v-.12c0-.1,0-.2,0-.3,0-13.2-10.74-23.93-23.94-23.93Zm0,38.22c-7.88,0-14.29-6.41-14.29-14.29s6.41-14.29,14.29-14.29,14.29,6.41,14.29,14.29-6.41,14.29-14.29,14.29Z"/>
    <path class="cls-2" d="m23.95,60.84C10.75,60.84.02,50.1.02,36.9S10.75,12.97,23.95,12.97s23.93,10.74,23.93,23.93-10.74,23.93-23.93,23.93Zm0-38.22c-7.88,0-14.29,6.41-14.29,14.29s6.41,14.29,14.29,14.29,14.29-6.41,14.29-14.29-6.41-14.29-14.29-14.29Z"/>
    <path class="cls-2" d="m46.27,55.34c-2.3,2.73-5.06,5.06-8.15,6.88.07.56.1,1.12.1,1.7,0,.98-.1,1.93-.29,2.86-1.34,6.5-7.1,11.41-14,11.41-7.88,0-14.29-6.41-14.29-14.29H0c0,13.2,10.73,23.93,23.93,23.93v.02c11.96,0,21.9-8.82,23.66-20.3.18-1.19.28-2.41.28-3.66h0c0-3.01-.57-5.89-1.59-8.55Z"/>
    <g>
      <g>
        <path class="cls-2" d="m426.74,37.71c-.01.07-.01.15-.01.22v.02c0,.09.01.18.02.27-.01-.17-.02-.34-.01-.51Z"/>
        <path class="cls-2" d="m448.84,13.56c-12.42.92-21.89,11.51-22.1,23.93-.01.07-.01.15,0,.22-.01.17,0,.34.01.51.38,12.85,10.95,23.2,23.91,23.2,8.96,0,19.74-5.15,23.28-15.14h-11.2c-2.6,3.85-7.14,5.49-12.08,5.49-6.97,0-12.79-5.01-14.04-11.61h37.96s.01,0,.01,0v-2.73c0-13.8-11.73-24.91-25.75-23.86Zm15.25,19.04h-26.86s-.02,0-.01-.02c1.98-5.5,7.26-9.45,13.44-9.45s11.46,3.95,13.45,9.45c0,.01-.01.02-.02.02Z"/>
      </g>
      <path class="cls-2" d="m426.74,37.49c-.01.07-.01.15,0,.22-.01-.07-.01-.15-.01-.22h.01Z"/>
    </g>
    <g>
      <g>
        <path class="cls-2" d="m564.69,37.71c-.01.07-.01.15-.01.22v.02c0,.09.01.18.02.27-.01-.17-.02-.34-.01-.51Z"/>
        <path class="cls-2" d="m586.79,13.56c-12.42.92-21.89,11.51-22.1,23.93-.01.07-.01.15,0,.22-.01.17,0,.34.01.51.38,12.85,10.96,23.2,23.91,23.2,8.96,0,19.74-5.15,23.28-15.14h-11.2c-2.59,3.85-7.13,5.49-12.08,5.49-6.96,0-12.78-5.01-14.03-11.61h37.96s.01,0,.01,0v-2.73c0-13.8-11.74-24.91-25.76-23.86Zm15.26,19.04h-26.87s-.01,0-.01-.02c1.99-5.5,7.26-9.45,13.44-9.45s11.46,3.95,13.45,9.45c0,.01,0,.02-.01.02Z"/>
      </g>
      <path class="cls-2" d="m564.69,37.49c-.01.07-.01.15,0,.22-.01-.07-.01-.15-.01-.22h.01Z"/>
    </g>
    <path class="cls-2" d="m301.06,60.84c-13.2,0-23.93-10.74-23.93-23.93s10.74-23.93,23.93-23.93,23.93,10.74,23.93,23.93-10.74,23.93-23.93,23.93Zm0-38.22c-7.88,0-14.29,6.41-14.29,14.29s6.41,14.29,14.29,14.29,14.29-6.41,14.29-14.29-6.41-14.29-14.29-14.29Z"/>
    <path class="cls-2" d="m421.57,37.24v23.6h-9.65v-23.6c0-7.84-6.37-14.21-14.21-14.21s-14.21,6.37-14.21,14.21v23.6h-9.64v-23.73c.07-13.1,10.74-23.73,23.85-23.73s23.86,10.7,23.86,23.86Z"/>
    <path class="cls-2" d="m383.5,12.15V0h-9.64v20.79c2.54-3.53,5.84-6.49,9.64-8.64Z"/>
  </g>
</svg>